<svg width="360" height="113" viewBox="0 0 360 113" fill="none" xmlns="http://www.w3.org/2000/svg">
<path d="M68.0254 56.5195C66.3595 58.4541 65.3506 60.9729 65.3506 63.7275C65.3506 67.3763 67.1201 70.612 69.8428 72.623C71.6776 73.9782 73.948 74.7792 76.4023 74.7793C81.2224 74.7793 85.3191 71.6947 86.8311 67.3945C87.2349 66.2456 87.4541 65.0109 87.4541 63.7275C87.4541 61.3037 86.6729 59.0598 85.3486 57.2373C85.1688 56.9897 84.9776 56.751 84.7783 56.5195H96.7441V84.6465C95.6918 91.7512 89.5665 97.204 82.1689 97.2041H80.3027C79.3017 96.9947 78.2647 96.8828 77.2031 96.8828C76.8085 96.8828 76.4181 96.8991 76.0322 96.9287H76.0312C75.3344 96.9827 74.6491 97.0832 73.9795 97.2295C68.5605 98.4122 64.2528 102.604 62.7363 107.9C62.436 108.949 61.983 109.961 61.3906 110.689C60.8106 111.402 60.1632 111.773 59.415 111.779C58.6137 111.786 57.9253 111.395 57.4004 110.7C56.8641 109.99 56.5411 109.003 56.541 108.003V85.998L54.8936 86.873L54.7412 86.9541C53.1725 87.7716 51.3884 88.2344 49.4932 88.2344C43.2126 88.2342 38.1211 83.1419 38.1211 76.8613C38.1213 70.5809 43.2127 65.4894 49.4932 65.4893C51.3851 65.4893 53.1666 65.9497 54.7334 66.7646V66.7656L54.8936 66.8506L56.541 67.7256V56.5195H68.0254Z" fill="#E3920F" stroke="white" stroke-width="2.24242"/>
<path d="M56.3828 68.0254C54.4482 66.3595 51.9295 65.3506 49.1748 65.3506C45.5261 65.3506 42.2904 67.1201 40.2793 69.8428C38.9242 71.6776 38.1231 73.948 38.123 76.4023C38.123 81.2224 41.2077 85.3191 45.5078 86.8311C46.6567 87.2349 47.8914 87.4541 49.1748 87.4541C51.5987 87.4541 53.8425 86.6729 55.665 85.3486C55.9127 85.1688 56.1514 84.9776 56.3828 84.7783V96.7441H28.2559C21.1512 95.6918 15.6983 89.5665 15.6982 82.1689V80.3027C15.9076 79.3017 16.0195 78.2647 16.0195 77.2031C16.0195 76.8085 16.0033 76.4181 15.9736 76.0322V76.0312C15.9197 75.3344 15.8191 74.6491 15.6729 73.9795C14.4902 68.5605 10.298 64.2528 5.00195 62.7363C3.95314 62.436 2.94118 61.983 2.21289 61.3906C1.49999 60.8106 1.129 60.1632 1.12305 59.415C1.11677 58.6137 1.50689 57.9253 2.20215 57.4004C2.9126 56.8641 3.89975 56.5411 4.89941 56.541H26.9043L26.0293 54.8936L25.9482 54.7412C25.1307 53.1725 24.668 51.3884 24.668 49.4932C24.6682 43.2126 29.7604 38.1211 36.041 38.1211C42.3215 38.1213 47.4129 43.2127 47.4131 49.4932C47.4131 51.3851 46.9526 53.1666 46.1377 54.7334H46.1367L46.0518 54.8936L45.1768 56.541H56.3828V68.0254Z" fill="#F869A1" stroke="white" stroke-width="2.24242"/>
<path d="M44.877 56.3828C46.5428 54.4482 47.5518 51.9295 47.5518 49.1748C47.5517 45.5261 45.7822 42.2904 43.0596 40.2793C41.2247 38.9242 38.9543 38.1231 36.5 38.123C31.6799 38.123 27.5832 41.2077 26.0713 45.5078C25.6674 46.6567 25.4483 47.8914 25.4482 49.1748C25.4482 51.5987 26.2294 53.8425 27.5537 55.665C27.7336 55.9127 27.9247 56.1514 28.124 56.3828H16.1582V28.2559C17.2105 21.1512 23.3358 15.6983 30.7334 15.6982H32.5996C33.6006 15.9076 34.6376 16.0195 35.6992 16.0195C36.0938 16.0195 36.4843 16.0033 36.8701 15.9736H36.8711C37.568 15.9197 38.2532 15.8191 38.9229 15.6729C44.3418 14.4902 48.6496 10.298 50.166 5.00195C50.4663 3.95314 50.9193 2.94118 51.5117 2.21289C52.0918 1.49999 52.7391 1.129 53.4873 1.12305C54.2887 1.11677 54.9771 1.50689 55.502 2.20215C56.0382 2.9126 56.3612 3.89975 56.3613 4.89941V26.9043L58.0088 26.0293L58.1611 25.9482C59.7298 25.1307 61.514 24.668 63.4092 24.668C69.6898 24.6682 74.7812 29.7604 74.7812 36.041C74.7811 42.3215 69.6896 47.4129 63.4092 47.4131C61.5172 47.4131 59.7357 46.9526 58.1689 46.1377V46.1367L58.0088 46.0518L56.3613 45.1768V56.3828H44.877Z" fill="#0775D6" stroke="white" stroke-width="2.24242"/>
<path d="M56.5195 44.877C58.4541 46.5428 60.9729 47.5518 63.7275 47.5518C67.3763 47.5517 70.612 45.7822 72.623 43.0596C73.9782 41.2247 74.7792 38.9543 74.7793 36.5C74.7793 31.6799 71.6947 27.5832 67.3945 26.0713C66.2456 25.6674 65.0109 25.4483 63.7275 25.4482C61.3037 25.4482 59.0598 26.2294 57.2373 27.5537C56.9897 27.7336 56.751 27.9247 56.5195 28.124L56.5195 16.1582H84.6465C91.7512 17.2105 97.204 23.3358 97.2041 30.7334V32.5996C96.9947 33.6006 96.8828 34.6376 96.8828 35.6992C96.8828 36.0938 96.8991 36.4843 96.9287 36.8701V36.8711C96.9827 37.568 97.0832 38.2532 97.2295 38.9229C98.4122 44.3418 102.604 48.6496 107.9 50.166C108.949 50.4663 109.961 50.9193 110.689 51.5117C111.402 52.0918 111.773 52.7391 111.779 53.4873C111.786 54.2887 111.395 54.9771 110.7 55.502C109.99 56.0382 109.003 56.3612 108.003 56.3613H85.998L86.873 58.0088L86.9541 58.1611C87.7716 59.7298 88.2344 61.514 88.2344 63.4092C88.2342 69.6898 83.1419 74.7812 76.8613 74.7812C70.5809 74.7811 65.4894 69.6896 65.4893 63.4092C65.4893 61.5172 65.9497 59.7357 66.7646 58.1689H66.7656L66.8506 58.0088L67.7256 56.3613H56.5195V44.877Z" fill="#0B9B92" stroke="white" stroke-width="2.24242"/>
<path d="M127.425 31.6915H159.474V41.0391H127.425V31.6915ZM127.425 78.4297V50.3868H150.794V59.7344H136.773V78.4297H127.425ZM162.114 78.4297V31.6915H171.461V78.4297H162.114ZM174.111 60.7359V45.0453H183.459V60.7359C183.459 66.3445 186.196 69.0821 191.805 69.0821H200.151V45.0453H209.499V78.4297H191.805C179.92 78.4297 174.111 72.6208 174.111 60.7359ZM245.139 65.7436H221.302C222.704 68.1473 225.308 69.7497 228.246 69.7497C229.849 69.7497 231.384 69.2156 232.653 68.3476L240.465 74.1565C237.327 77.2278 232.987 79.0974 228.246 79.0974C218.631 79.0974 210.886 71.3522 210.886 61.7375C210.886 52.1228 218.631 44.3776 228.246 44.3776C237.861 44.3776 245.606 52.1228 245.606 61.7375C245.606 63.0729 245.406 64.475 245.139 65.7436ZM221.302 57.7314H235.123C233.721 55.3277 231.184 53.7252 228.246 53.7252C225.308 53.7252 222.704 55.3277 221.302 57.7314ZM283.636 62.739V78.4297H274.288V62.739C274.288 57.1304 271.55 54.3929 265.942 54.3929H257.596V78.4297H248.248V45.0453H265.942C277.827 45.0453 283.636 50.8542 283.636 62.739ZM297.344 45.0453H319.378V54.3929H297.344C295.541 54.3929 295.541 57.0637 297.344 57.0637H311.366C326.055 57.0637 326.055 78.4297 311.366 78.4297H289.332V69.0821H311.366C313.168 69.0821 313.168 66.4113 311.366 66.4113H297.344C282.655 66.4113 282.655 45.0453 297.344 45.0453ZM359.778 45.0453V61.7375C359.778 71.2854 351.966 79.0974 342.418 79.0974C332.87 79.0974 325.058 71.2854 325.058 61.7375V45.0453H334.406V61.7375C334.406 66.1442 338.011 69.7497 342.418 69.7497C346.825 69.7497 350.43 66.1442 350.43 61.7375V45.0453H359.778ZM350.43 79.0974H359.778C359.778 88.6453 351.966 96.4573 342.418 96.4573C332.87 96.4573 325.058 88.6453 325.058 79.0974H334.406C334.406 83.5041 338.011 87.1096 342.418 87.1096C346.825 87.1096 350.43 83.5041 350.43 79.0974Z" fill="#001E38"/>
</svg>
